<svg version="1.2" xmlns="http://www.w3.org/2000/svg" viewBox="0 0 1341 1593" width="1341" height="1593">
	<title>logo (49)-svg</title>
	<style>
		.s0 { fill: #8a6e4b } 
	</style>
	<g id="Layer_2_1_">
		<g id="Layer_1-2">
			<path id="Layer" class="s0" d="m809.6 517.2l-48.1-36.6 4.6-114.4c0-4.6 2.3-9.2 4.6-13.7 32-41.2 34.3-100.7 4.5-146.5-9.1-13.8-16-34.4 13.8-38.9 77.8-16 155.6 32 178.5 107.5 20.6 61.8-4.6 130.5-57.2 167.1-38.9 32-100.7 77.8-100.7 75.5z"/>
			<path id="Layer" class="s0" d="m564.7 208.3c13.7-13.8 20.6-43.5-22.9-41.2-29.8 0-162.5 2.3-171.6 151-2.3 48.1 11.4 103 139.6 190 25.1 20.6 114.4 86.9 185.3 144.2 20.6 22.8 59.5 50.3 52.7 123.6-2.3 22.8-2.3 57.2 32 34.3 38.9-22.9 148.8-125.9 27.5-270.1-27.5-20.6-171.7-130.4-203.7-153.3-25.2-27.5-64.1-57.2-57.2-128.2 2.3-16 9.1-34.3 18.3-50.3z"/>
			<path id="Layer" class="s0" d="m585.3 590.5c0-6.9-6.9-16.1-22.9-9.2-32 11.5-132.7 144.2-32 242.6 25.1 20.6 86.9 68.7 139.6 107.6 25.1 16 82.3 48 66.3 135-2.3 9.2 4.6 16 13.8 18.3 4.5 0 11.4-2.3 13.7-4.6 32-22.8 132.7-107.5 25.2-219.7-27.5-27.4-148.8-112.1-164.8-125.8-20.6-27.5-34.3-59.6-36.6-93.9 0-6.8-2.3-43.5-2.3-50.3z"/>
			<path id="Layer" class="s0" d="m596.7 897.1c0-6.8-4.6-18.3-25.2-6.8-52.6 38.9-68.6 109.8-41.1 171.6 18.3 43.5 112.1 93.9 171.6 141.9 20.6 22.9 29.8 52.7 25.2 80.1-2.3 9.2-4.6 34.4 27.4 16 41.2-27.4 91.6-93.8 27.5-169.3-18.3-16-112.1-89.3-137.3-107.6-27.5-18.3-43.5-50.3-43.5-84.7-4.6-16-4.6-29.7-4.6-41.2z"/>
			<path id="Layer" class="s0" d="m608.2 1158.1c0-6.9-6.9-36.7-32.1-9.2-13.7 18.3-77.8 96.1 0 173.9 22.9 20.6 130.5 91.6 135.1 103 4.5 11.5 11.4 25.2 2.2 77.8 0 11.5 2.3 22.9 18.4 11.5 16-11.5 73.2-57.2 41.1-146.5-22.8-32-52.6-57.2-84.6-80.1-27.5-22.9-66.4-43.5-77.8-87-2.3-13.7-2.3-27.4-2.3-43.4z"/>
			<path id="Layer" class="s0" d="m619.6 1375.5c0 6.8 4.6 135 4.6 135 0 6.9-4.6 20.6-18.3 11.4-32.1-16-50.4-50.3-48.1-84.6 0-27.5 13.7-52.7 34.3-68.7 13.8-11.4 27.5-2.3 27.5 6.9z"/>
			<path id="Layer" class="s0" d="m1340.5 666c0-329.6-238-611.1-563-666v18.3c320.4 61.8 528.7 373.1 466.9 691.2-43.5 219.7-208.3 398.2-423.4 457.7 4.6 11.5 6.9 25.2 6.9 36.6 0 13.8-2.3 27.5-9.2 41.2-16 29.8-41.2 57.2-70.9 75.5l16 13.8c331.8-48.1 576.7-334.2 576.7-668.3z"/>
			<path id="Layer" class="s0" d="m560.1 1332c-368.5-64.1-613.3-414.3-549.3-782.7 50.4-281.5 272.4-501.2 553.9-549.3v18.3c-276.9 54.9-478.3 297.5-478.3 579 0 272.4 201.4 505.8 450.8 574.5-11.4 22.9-18.3 45.8-20.6 73.2 4.6 32.1 18.3 64.1 43.5 87z"/>
			<path id="Layer" class="s0" d="m738.6 460l-141.9-107.5-4.6-77.9c0-13.7 9.2-25.1 20.6-25.1h114.5c9.1 0 18.3 4.5 18.3 27.4 0 22.9-6.9 183.1-6.9 183.1z"/>
			<path id="Layer" class="s0" d="m605.9 608.8c-6.9 48 13.7 93.8 50.3 123.6 13.8 11.4 75.6 57.2 75.6 57.2 0-9.2 4.5-75.5-27.5-103-16-13.7-98.4-77.8-98.4-77.8z"/>
			<path id="Layer" class="s0" d="m617.3 915.5c-2.3 34.3 13.8 68.6 43.5 89.2 6.9 6.9 54.9 41.2 59.5 45.8 0-11.5 9.2-52.7-16-73.2-16-9.2-87-61.8-87-61.8z"/>
			<path id="Layer" class="s0" d="m626.5 1167.2c-2.3 29.8 11.4 57.2 34.3 77.8 4.6 4.6 41.2 29.8 50.4 36.6 4.5-22.8-2.3-48-20.6-64-13.8-13.8-64.1-50.4-64.1-50.4z"/>
			<path id="Layer" class="s0" d="m637.9 1389.2l68.7 50.4c0 0 0 13.7 0 20.6 0 2.2-2.3 112.1-2.3 112.1 0 9.2-13.7 20.6-29.8 20.6-16 0-32-11.4-32-18.3 0-6.9-4.6-185.4-4.6-185.4z"/>
		</g>
	</g>
</svg>