<svg version="1.2" xmlns="http://www.w3.org/2000/svg" viewBox="0 0 1585 594" width="1585" height="594">
	<title>logo (49)-svg</title>
	<style>
		.s0 { fill: #8a6e4b } 
	</style>
	<g id="Layer_2_1_">
		<g id="Layer_1-2">
			<path id="Layer" class="s0" d="m302 192.7l-17.9-13.6 1.7-42.6c0-1.7 0.9-3.5 1.7-5.2 11.9-15.3 12.8-37.5 1.7-54.5-3.4-5.2-6-12.8 5.1-14.5 29-6 58 11.9 66.5 40 7.7 23.1-1.7 48.7-21.3 62.3-14.5 11.9-37.5 29-37.5 28.1z"/>
			<path id="Layer" class="s0" d="m210.8 77.6c5.1-5.1 7.6-16.2-8.6-15.3-11.1 0-60.5 0.8-63.9 56.2-0.9 18 4.2 38.4 52 70.8 9.4 7.7 42.6 32.4 69.1 53.8 7.6 8.5 22.1 18.7 19.6 46-0.9 8.5-0.9 21.3 11.9 12.8 14.5-8.5 55.4-46.9 10.2-100.6-10.2-7.7-63.9-48.6-75.8-57.2-9.4-10.2-23.9-21.3-21.4-47.7 0.9-6 3.5-12.8 6.9-18.8z"/>
			<path id="Layer" class="s0" d="m218.4 220c0-2.5-2.5-5.9-8.5-3.4-11.9 4.3-49.4 53.8-11.9 90.4 9.4 7.7 32.4 25.6 52 40.1 9.4 6 30.7 17.9 24.7 50.3-0.8 3.4 1.7 6 5.1 6.9 1.7 0 4.3-0.9 5.1-1.8 12-8.5 49.5-40 9.4-81.8-10.2-10.3-55.4-41.8-61.4-46.9-7.6-10.3-12.8-22.2-13.6-35 0-2.6-0.9-16.2-0.9-18.8z"/>
			<path id="Layer" class="s0" d="m222.7 334.3c0-2.5-1.7-6.8-9.4-2.5-19.6 14.5-25.6 40.9-15.3 63.9 6.8 16.2 41.8 35 63.9 52.9 7.7 8.5 11.1 19.6 9.4 29.9-0.9 3.4-1.7 12.7 10.2 5.9 15.4-10.2 34.1-34.9 10.3-63.1-6.9-6-41.8-33.2-51.2-40.1-10.2-6.8-16.2-18.7-16.2-31.5-1.7-6-1.7-11.1-1.7-15.4z"/>
			<path id="Layer" class="s0" d="m227 431.5c0-2.5-2.6-13.6-12-3.4-5.1 6.9-29 35.9 0 64.9 8.6 7.6 48.6 34.1 50.3 38.3 1.7 4.3 4.3 9.4 0.9 29 0 4.3 0.8 8.6 6.8 4.3 6-4.3 27.3-21.3 15.4-54.6-8.6-11.9-19.7-21.3-31.6-29.8-10.2-8.6-24.7-16.2-29-32.4-0.8-5.2-0.8-10.3-0.8-16.3z"/>
			<path id="Layer" class="s0" d="m231.2 512.6c0 2.5 1.7 50.3 1.7 50.3 0 2.5-1.7 7.7-6.8 4.2-11.9-5.9-18.7-18.7-17.9-31.5 0-10.2 5.1-19.6 12.8-25.6 5.1-4.3 10.2-0.8 10.2 2.6z"/>
			<path id="Layer" class="s0" d="m499.8 248.2c0-122.8-88.7-227.7-209.7-248.2v6.8c119.3 23.1 196.9 139 173.9 257.6-16.2 81.9-77.6 148.4-157.7 170.6 1.7 4.2 2.5 9.3 2.5 13.6 0 5.1-0.8 10.2-3.4 15.4-6 11-15.3 21.3-26.4 28.1l5.9 5.1c123.7-17.9 214.9-124.5 214.9-249z"/>
			<path id="Layer" class="s0" d="m209.1 496.4c-137.3-23.9-228.6-154.4-204.7-291.7 18.8-104.9 101.5-186.8 206.4-204.7v6.8c-103.2 20.5-178.3 110.9-178.3 215.8 0 101.5 75.1 188.5 168 214.1-4.2 8.5-6.8 17-7.6 27.3 1.7 11.9 6.8 23.8 16.2 32.4z"/>
			<path id="Layer" class="s0" d="m275.6 171.4l-52.9-40.1-1.7-29c0-5.1 3.4-9.3 7.7-9.3h42.6c3.4 0 6.8 1.7 6.8 10.2 0 8.5-2.5 68.2-2.5 68.2z"/>
			<path id="Layer" class="s0" d="m226.1 226.9c-2.5 17.9 5.1 34.9 18.8 46 5.1 4.3 28.1 21.3 28.1 21.3 0-3.4 1.7-28.1-10.2-38.3-6-5.2-36.7-29-36.7-29z"/>
			<path id="Layer" class="s0" d="m230.4 341.1c-0.9 12.8 5.1 25.6 16.2 33.3 2.5 2.6 20.4 15.4 22.1 17.1 0-4.3 3.5-19.7-5.9-27.3-6-3.4-32.4-23.1-32.4-23.1z"/>
			<path id="Layer" class="s0" d="m233.8 435c-0.9 11 4.2 21.3 12.8 29 1.7 1.7 15.3 11 18.7 13.6 1.7-8.5-0.8-17.9-7.6-23.9-5.2-5.1-23.9-18.7-23.9-18.7z"/>
			<path id="Layer" class="s0" d="m238 517.7l25.6 18.7c0 0 0 5.2 0 7.7 0 0.9-0.8 41.8-0.8 41.8 0 3.4-5.1 7.7-11.1 7.7-6 0-11.9-4.3-11.9-6.8 0-2.6-1.8-69.1-1.8-69.1z"/>
			<path id="Layer" fill-rule="evenodd" class="s0" d="m557.8 55.4c11.9-1.7 23.9-2.5 36.7-2.5 12.8-0.9 25.6 0.8 36.6 6.8 9.4 5.1 14.5 14.5 14.5 24.7 0 12-8.5 23.1-20.4 26.5 14.5 3.4 24.7 16.2 24.7 30.7 0 10.2-4.3 20.4-12.8 26.4-8.5 6.8-23.9 11.1-48.6 11.1-10.2 0-20.5-0.9-30.7-1.7zm28.1 47.8h9.4c15.4 0 23-6 23-15.4 0-9.4-7.6-14.5-20.4-14.5-4.3 0-7.7 0-12 0.9zm0 54.5c3.5 0.9 7.7 0.9 11.1 0.9 12.8 0 23.9-5.1 23.9-17.9 0-12.8-11.1-17.1-25.6-17.1h-9.4z"/>
			<path id="Layer" class="s0" d="m753.9 149.3c0 11.9 0 21.3 0.9 28.9h-23.9l-1.7-12.7h-0.9c-5.9 9.3-17 15.3-28.1 14.5-18.8 0-31.5-11.1-31.5-39.3v-52.9h28.1v48.7c0 12.7 4.3 21.3 14.5 21.3 6 0 11.9-4.3 13.6-9.4 0.9-1.7 0.9-4.3 0.9-6v-53.7h28.1z"/>
			<path id="Layer" class="s0" d="m776.9 116.8c0-11 0-20.4-0.8-29h23.9l0.8 12h0.9c5.9-9.4 16.2-14.5 27.3-14.5 11-0.9 20.4 6 24.7 15.3 3.4-4.2 6.8-8.5 11.9-11.1 5.1-2.5 11.1-4.2 17.1-4.2 17 0 30.7 11.9 30.7 39.2v52.9h-27.3v-48.6c0-12.8-4.3-20.5-13.7-20.5-5.9 0-11 4.3-12.7 9.4-0.9 2.6-0.9 4.3-0.9 6.8v52.9h-27.3v-49.5c0-11.1-4.2-18.7-12.8-18.7-5.9 0-11.1 4.2-12.8 9.3-0.8 2.6-0.8 5.2-0.8 6.9v52h-28.2z"/>
			<path id="Layer" class="s0" d="m935.5 117.7c0-13.7 0-22.2-0.8-29.9h23.9l0.8 17.1h0.9c3.4-11.1 12.8-18.8 23.8-18.8 1.8 0 4.3 0 6 0.9v26.4c-2.5-0.8-5.1-0.8-7.7-0.8-9.3-0.9-17 5.1-18.7 14.5 0 1.7-0.9 4.2-0.9 5.9v45.2h-28.1z"/>
			<path id="Layer" class="s0" d="m1090.7 149.3c0 11.9 0 21.3 0.9 28.9h-24.7l-1.7-12.7h-0.9c-6 9.3-17.1 15.3-28.1 14.5-18.8 0-31.6-11.1-31.6-39.3v-52.9h27.3v48.7c0 12.7 4.3 21.3 14.5 21.3 6 0 11.9-4.3 13.6-9.4 0.9-1.7 0.9-4.3 0.9-6v-53.7h28.1z"/>
			<path id="Layer" class="s0" d="m1112.9 116.8c0-11 0-20.4-0.8-29h24.7l0.8 12.8h0.9c6-9.3 17-14.5 28.1-14.5 18.8 0 32.4 12 32.4 39.3v52.8h-28.1v-50.3c0-11.9-4.3-19.6-14.5-19.6-6.8 0-12.8 4.3-14.5 11.1-0.9 2.6-0.9 4.3-0.9 6.8v52h-28.1z"/>
			<path id="Layer" fill-rule="evenodd" class="s0" d="m1306.5 164.6c0 17.1-3.4 31.6-13.7 40.1-10.2 7.7-23 11.9-36.6 11.1-11.1 0-22.2-1.7-32.4-6.9l5.1-21.3c7.6 4.3 17 6.9 26.4 6.9 11.9 0.8 22.2-7.7 23-18.8q0-2.6 0-5.1v-6c-5.9 7.7-15.3 11.9-24.7 11.9-22.2 0-38.4-17.9-38.4-43.5 0-29 18.8-47.7 41-47.7 10.2-0.9 19.6 4.3 24.7 12.8l0.8-11.1h24.8c0 6-0.9 13.6-0.9 27.3zm-27.3-40.1c0-1.7 0-3.4-0.8-5.1-1.7-7.7-7.7-12.8-15.4-12-10.2 0-18.7 9.4-18.7 25.6 0 13.7 6.8 23.9 17.9 23.9 6.8 0 12.8-4.3 15.3-11.1 0.9-2.5 0.9-5.1 0.9-7.7z"/>
			<path id="Layer" class="s0" d="m1330.3 117.7c0-13.7 0-22.2-0.8-29.9h23.9l0.8 17.1h0.9c3.4-11.1 12.8-18.8 24.7-18.8 1.7 0 4.3 0 6 0.9v26.4c-2.6-0.8-5.2-0.8-7.7-0.8-9.4-0.9-17.1 5.1-18.8 14.5-0.8 1.7-0.8 4.2-0.8 5.9v45.2h-28.2z"/>
			<path id="Layer" fill-rule="evenodd" class="s0" d="m1473.6 156.1c0 7.6 0 14.5 1.7 21.3h-25.6l-1.7-9.4h-0.8c-6.9 7.7-16.2 11.1-25.6 11.1-15.4 0.9-28.2-11.1-29-26.4 0-0.9 0-0.9 0-1.7 0-23.1 21.3-34.2 52.9-34.2v-1.7c0-5.1-2.6-11.9-16.2-11.9-8.6 0-17.1 2.6-24.8 6.8l-5.1-17.9c11.1-5.1 23-8.5 35-7.7 29.8 0 39.2 17.9 39.2 39.3zm-27.3-20.5c-14.5 0-26.4 3.4-26.4 14.5 0 5.1 3.4 10.2 9.4 11.1 0.8 0 0.8 0 1.7 0 6.8 0 12.7-4.3 14.5-10.3 0-1.7 0.8-3.4 0.8-5.1z"/>
			<path id="Layer" fill-rule="evenodd" class="s0" d="m1583.6 46.9v104.1c0 10.2 0 20.4 0.8 26.4h-24.7l-0.8-12.8h-0.9c-6 9.4-17 15.4-28.1 15.4-21.3 0-38.4-18-38.4-46.1 0-29.9 18.8-47.8 40.1-47.8 9.4-0.8 17.9 3.5 23.9 10.3v-49.5zm-28.2 74.2c-1.7-7.7-8.5-13.6-16.2-13.6-12.8 0-19.6 11-19.6 25.5 0 14.5 7.7 24.8 18.8 24.8 7.6 0 14.5-6 16.2-13.7 0-1.7 0.8-4.2 0.8-5.9 0-1.7 0-15.4 0-17.1z"/>
			<path id="Layer" class="s0" d="m559.5 227.7h16.2v124.5h-16.2z"/>
			<path id="Layer" class="s0" d="m609 286.6c0-9.4 0-17.1-0.9-23.9h14.5l0.9 14.5c5.9-10.3 17-17.1 29-16.2 11.9 0 31.5 7.6 31.5 37.5v52.9h-16.2v-51.2c0-14.5-5.1-26.4-20.5-26.4-9.3 0-17.9 6.8-21.3 16.2-0.8 2.5-0.8 5.1-0.8 7.6v53.8h-16.2z"/>
			<path id="Layer" class="s0" d="m735.2 241.4v21.3h23v11.9h-23v47.8c0 11.1 3.4 17 11.9 17 3.4 0 6 0 9.4-0.8l0.8 11.9c-4.2 1.7-9.3 2.6-14.5 2.6-6.8 0-12.8-2.6-17.9-6.8-5.1-6.9-6.8-15.4-5.9-23.1v-48.6h-13.7v-11.9h13.7v-16.2z"/>
			<path id="Layer" fill-rule="evenodd" class="s0" d="m789.7 309.6c-1.7 15.3 10.3 29.8 25.6 30.7q2.6 0 5.1 0c8.6 0 17.1-1.7 24.8-5.1l2.5 11.1c-9.4 4.2-19.6 5.9-29.8 5.9-27.3 0-43.5-17.9-43.5-45.2 0-27.3 16.2-47.7 41.8-47.7 29 0 36.6 25.6 36.6 41.8 0 2.5 0 5.1-0.8 7.6zm47.7-11.1c0-10.2-4.2-26.4-22.1-26.4-17.1 0-23.9 15.4-24.8 26.4z"/>
			<path id="Layer" class="s0" d="m878.4 290c0-10.3 0-19.6-0.8-28.2h14.5l0.8 17.9h0.9c3.4-11.1 12.8-18.7 24.7-19.6 1.7 0 3.4 0 4.3 0.9v15.3c-1.7 0-3.5 0-6 0-11.1 0.9-20.5 9.4-22.2 20.5 0 2.6-0.8 5.1-0.8 7.7v47.7h-16.2z"/>
			<path id="Layer" class="s0" d="m944.1 286.6c0-9.4 0-17.1-0.9-23.9h14.5l0.9 14.5c5.9-10.3 17-17.1 29-16.2 11.9 0 31.5 7.6 31.5 37.5v52.9h-16.2v-51.2c0-14.5-5.1-26.4-20.5-26.4-9.3 0-17.9 6.8-21.3 16.2-0.8 2.5-0.8 5.1-0.8 7.6v53.8h-16.2z"/>
			<path id="Layer" fill-rule="evenodd" class="s0" d="m1114.6 330.1c0 6.8 0 14.5 0.9 21.3h-14.5l-1.7-11.1h-0.9c-6 8.5-16.2 13.6-27.3 12.8-14.5 0.8-26.4-9.4-27.3-23.9 0-0.8 0-0.8 0-1.7 0-21.3 18.8-33.3 53.8-33.3v-1.7c1.7-10.2-6-19.6-15.4-20.4-1.7 0-2.5 0-4.3 0-8.5 0-16.2 2.5-23 6.8l-3.4-11.1c8.5-5.1 18.8-7.7 29-7.7 27.3 0 34.1 18.8 34.1 36.7zm-15.3-23.9c-17.9 0-37.6 2.6-37.6 20.5-0.8 7.7 5.2 14.5 12.8 15.3q1.3 0 2.6 0c9.4 0 18.8-5.9 22.2-15.3 0.8-1.7 0.8-3.4 0.8-5.1v-15.4z"/>
			<path id="Layer" class="s0" d="m1164.9 241.4v21.3h23v11.9h-23v47.8c0 11.1 3.4 17 12 17 3.4 0 5.9 0 9.3-0.8l0.9 11.9c-4.3 1.7-9.4 2.6-14.5 2.6-6.8 0-12.8-2.6-17.9-6.8-5.1-6.9-6.8-15.4-6-23.1v-48.6h-13.6v-11.9h13.6v-16.2z"/>
			<path id="Layer" class="s0" d="m1211.8 262.7h16.2v88.7h-16.2zm7.7-16.2c-6 0-10.2-4.3-10.2-10.3 0-5.9 4.2-10.2 10.2-10.2 5.1 0 10.2 4.3 10.2 9.4v0.8c0 5.2-4.2 9.4-10.2 10.3z"/>
			<path id="Layer" fill-rule="evenodd" class="s0" d="m1296.2 353.1c-23.8 0-42.6-17.9-42.6-46.1 0-29.8 19.6-46.9 44.3-46.9 24.8 0 42.7 18.8 42.7 45.2 0 33.3-23 47.8-44.4 47.8zm0.9-12c15.3 0 27.3-14.5 27.3-34.9 0-15.4-7.7-34.1-26.5-34.1-18.7 0-27.2 17.9-27.2 34.9-0.9 19.6 10.2 34.1 26.4 34.1z"/>
			<path id="Layer" class="s0" d="m1366.2 286.6c0-9.4 0-17.1-0.9-23.9h14.5l0.8 14.5h0.9c6-10.3 17.1-17.1 29-16.2 11.9 0 31.5 7.6 31.5 37.5v52.9h-16.2v-51.2c0-14.5-5.1-26.4-20.4-26.4-10.3 0-18.8 6.8-22.2 16.2-0.8 2.5-0.8 5.1-0.8 7.6v53.8h-16.2z"/>
			<path id="Layer" fill-rule="evenodd" class="s0" d="m1536.7 330.1c0 6.8 0 14.5 0.8 21.3h-14.5l-1.7-11.1h-0.8c-6 8.5-16.2 13.6-27.3 12.8-14.5 0.8-26.4-9.4-27.3-23.9 0-0.8 0-0.8 0-1.7 0-21.3 18.8-33.3 53.7-33.3v-1.7c1.7-10.2-5.9-19.6-15.3-20.4-1.7 0-2.6 0-4.3 0-8.5 0-16.2 2.5-23 6.8l-3.4-11.1c8.5-5.1 18.8-7.7 29-7.7 27.3 0 34.1 18.8 34.1 36.7zm-16.2-23.9c-17.9 0-37.5 2.6-37.5 20.5-0.9 7.7 5.1 14.5 12.8 15.3q1.2 0 2.5 0c9.4 0 18.8-5.9 22.2-15.3 0.8-1.7 0.8-3.4 0.8-5.1z"/>
			<path id="Layer" class="s0" d="m1567.4 220.9h16.2v130.5h-16.2z"/>
			<path id="Layer" class="s0" d="m806.8 480.2v37.5h43.5v-37.5h11.1v88.7h-11.1v-41.8h-43.5v41.8h-11.9v-88.7z"/>
			<path id="Layer" fill-rule="evenodd" class="s0" d="m921.1 570.6c-23.9 0-40.1-17.9-40.1-45.2 0-28.2 17.9-46.9 40.9-46.9 23 0 40.1 18.7 40.1 45.2 0 30.7-18.8 46.9-40.9 46.9zm28.1-45.7c0-20-12.8-36.2-28.6-36.2-15.8 0-28.5 16.2-28.5 36.2 0 20.1 12.7 36.3 28.5 36.3 15.8 0 28.6-16.2 28.6-36.3z"/>
			<path id="Layer" class="s0" d="m979 555.2c6 3.4 13.7 6 20.5 6 11.9 0 18.8-6 18.8-15.4 0-9.4-5.2-12.8-17.1-17.9-14.5-5.1-23.9-12.8-23.9-25.6 0-13.6 11.1-23.8 29-23.8 6.8 0 13.7 0.8 19.6 4.2l-3.4 9.4c-5.1-2.6-11.1-4.3-17-4.3-12 0-17.1 6.9-17.1 13.7 0 8.5 5.1 12.8 17.9 17 15.4 6 23 12.8 23 26.5 0 13.6-10.2 25.6-31.5 25.6-7.7 0-16.2-1.7-23-6z"/>
			<path id="Layer" fill-rule="evenodd" class="s0" d="m1049.8 481c7.7-0.8 14.5-1.7 22.2-1.7 9.4-0.8 17.9 1.7 24.7 7.7 5.1 5.1 8.5 11.9 7.7 18.7 0 6.9-2.6 13.7-6.8 18.8-7.7 6.8-17.1 10.2-27.3 10.2-3.4 0-6 0-9.4-0.8v35.8h-11.1zm11.1 42.7c3.4 0.8 6 0.8 9.4 0.8 13.6 0 22.1-6.8 22.1-18.8 0-11.9-8.5-17.9-21.3-17.9-3.4 0-7.7 0-11.1 0.9v35z"/>
			<path id="Layer" class="s0" d="m1124 480.2h11.9v89.5h-11.9z"/>
			<path id="Layer" class="s0" d="m1176 489.5h-27.3v-9.3h66.5v9.3h-27.3v79.4h-11.9z"/>
			<path id="Layer" fill-rule="evenodd" class="s0" d="m1234 540.7l-9.4 28.2h-12.8l30.7-89.6h13.7l30.7 89.6h-12l-9.4-28.2zm29-8.5l-8.5-25.6c-1.7-6-3.4-11.1-4.3-16.2-0.8 5.1-2.5 11.1-4.2 16.2l-8.6 25.6z"/>
			<path id="Layer" class="s0" d="m1303.9 480.2h11.1v79.3h38.4v9.4h-49.5z"/>
			<path id="Layer" class="s0" d="m556.1 422.2h1025.8v5.9h-1025.8z"/>
		</g>
	</g>
</svg>